<svg version="1" xmlns="http://www.w3.org/2000/svg" width="1322.667" height="1322.667" viewBox="0 0 992.000000 992.000000"><path d="M594 159.1c-6 2.4-10.2 8.7-10.2 15.4 0 5.2.6 6.3 9.2 18.5 32.4 45.7 52.8 101.3 58 157.5 1.4 15.9 1.2 45.8-.5 62C636.1 547.8 539.3 660.1 408 693.6c-55.4 14.2-112.9 13.4-168.4-2.3-13.1-3.7-19.4-2.5-24.9 4.9-2.7 3.6-3.3 10.5-1.4 15.1 4.3 10.3 41.8 50 63.2 67.1 52.7 41.9 115.2 68.4 179.5 76.1 35 4.1 56 4.1 89-.1 153.2-19.5 275.4-133 305.5-283.9 1.9-9.4 3.9-21.7 4.5-27.5.6-5.8 1.3-11.9 1.6-13.5.3-1.7.7-11.3 1-21.5 1.2-38.8-6.8-88.5-20.5-126.8-18.5-51.7-46.3-95.5-85.1-134.2-37.9-37.8-84.7-67-134.9-84.1-14.5-4.9-18.5-5.6-23.1-3.8zm-355.8 72.6c-5.5 2.7-7.7 6.8-7.7 14.3 0 5.2.5 7.2 2.3 9.8 4.8 6.6 4.9 6.6 44.6 7.2l35.9.5-40.4 44.3c-22.2 24.4-41 45.7-41.8 47.5-.8 1.9-1.1 5.3-.9 8.5.4 4.3 1.1 5.9 3.8 8.7 1.8 1.8 4.4 3.9 5.9 4.5 1.8.7 20.3 1 60.3.8 56.5-.3 57.7-.3 60.4-2.4 9.7-7.2 9.7-20.8.1-27.2l-4-2.7-36.3-.5-36.2-.5 40.8-44.8c28.2-30.9 41.2-45.8 42-48.3 2.5-7.3-.2-14.5-7-19.2l-3.3-2.2h-57.6c-51 0-58 .2-60.9 1.7z"/><path d="M422.6 313c-4 1.2-7.5 4.8-9.8 9.8-3.4 7.6-.3 16.4 7.1 20.2 3.8 1.9 5.8 2 39.6 2 19.5 0 35.5.3 35.5.6s-6.4 7.7-14.3 16.3C419.3 429 413.1 436 412 440.2c-2.1 7.8 2.6 16.8 10.3 19.7 4.6 1.8 112.8 1.5 117-.3 5-2 9.5-7.8 10.2-13 1-6.3-2.4-13.2-8-16.3-3.9-2.2-4.6-2.3-39.7-2.3-19.7 0-35.8-.2-35.8-.5s14-16 31.2-34.8c17.2-18.8 35.6-39 40.9-44.8 10.5-11.5 12.6-15.7 11.3-22.6-.9-4.7-6.6-11-11.2-12.3-4.6-1.2-111.4-1.2-115.6 0zM311.2 495.7c-11.9 5.9-12.1 23.1-.2 29 4.1 2.1 5.8 2.3 21.7 2.3H350l-22.2 27.7c-12.2 15.3-23.1 29.4-24 31.3-4.3 8.2-.8 17.4 8.4 22.1 3.5 1.8 6.3 1.9 39.3 1.9 33.3 0 35.8-.1 39.4-2 10.2-5.1 13.2-17 6.4-25-4.6-5.6-6.5-6-25.8-6-11.2 0-17.5-.4-17.5-1s9.9-13.3 21.9-28.4c12-15 22.7-28.8 23.6-30.6 2.4-4.6 1.6-11.9-1.8-16.3-5.1-6.7-5.4-6.7-46.4-6.7-32 0-37.2.3-40.1 1.7z"/></svg>